<?xml version="1.0" encoding="utf-8"?>
<!-- Generator: Adobe Illustrator 22.1.0, SVG Export Plug-In . SVG Version: 6.00 Build 0)  -->
<svg version="1.1" id="Layer_1" xmlns="#www.w3.org/2000/svg" xmlns:xlink="#www.w3.org/1999/xlink" x="0px" y="0px"
	 viewBox="0 0 50 50" style="enable-background:new 0 0 50 50;" xml:space="preserve">
<style type="text/css">
	.st0{fill:none;stroke:#27444B;stroke-width:2.5;}
	.st1{display:none;fill:#27444B;}
	.st2{fill:none;stroke:#27444B;stroke-width:2;stroke-miterlimit:10;}
</style>
<g id="Home-intro-block" transform="translate(-45 -580)">
	<g id="Group-8" transform="translate(47 582)">
		<circle id="Oval" class="st0" cx="30.2" cy="15.8" r="11.6"/>
		<circle id="Oval_1_" class="st0" cx="30.2" cy="15.8" r="16.2"/>
		<path class="st1" d="M21.3,30.6l-15.9,16C4,48,1.8,48,0.5,46.6l0,0c-1.4-1.4-1.4-3.6,0-4.9l15.9-15.9c1.4-1.4,3.6,1.7,4.9,3.1
			l-2-2C20.6,28.1,22.7,29.3,21.3,30.6z"/>
		<path class="st2" d="M21.3,29.6l-15.9,16C4,47,1.8,47,0.5,45.6l0,0c-1.4-1.4-1.4-3.6,0-4.9l15.9-15.9"/>
	</g>
</g>
</svg>
