<svg xmlns="#www.w3.org/2000/svg" width="50" height="50">
  <path d="M44 29.9C48.9 18.3 43.5 5 32 .1c-.5-.2-1.1 0-1.3.5l-1.1 2.6C14.1-2.4-.3 12.9 5.6 27.9c1.8 4.5 5 7.9 9.2 10l-1.1 2.6c-.2.5 0 1.1.5 1.4 2.6 1 5.2 1.7 7.8 1.8V48h-4.6c-.6 0-1 .4-1 1s.4 1 1 1h11.1c.6 0 1-.4 1-1s-.4-1-1-1H24v-4.3c8.6-.5 16.4-5.6 20-13.8zM29.9 5.5c1.2.5 2.5 4 1.1 10.4l-9.4-4.2c2.8-4.1 5.7-6.5 7.6-6.5.1.2.4.2.7.3zm3.5 2.2c3.8 2.9 6.1 7.4 6.4 12.2l-6.9-3c.4-1.9.7-3.8.8-5.4 0-1.5-.1-2.8-.3-3.8zm6.4 14.4c-.1 1.9-.7 6.5-4.5 10.4l-7.5-3.3c.9-1.6 3.7-7.2 4.5-10.4l7.5 3.3zm-13 8.9l6.9 3c-3.6 3-8.5 4.3-13.3 3.5 2.1-1.2 4.3-3.4 6.4-6.5zm-.9-2.7l-10.1-4.4c.9-3.9 3.6-8.9 4.5-10.4l10.1 4.4c-.5 1.8-2.6 7.7-4.5 10.4zm-.1-23.9c-2.1 1.3-4.3 3.5-6.3 6.6l-6.9-3c5.9-5.1 12.3-3.8 13.2-3.6zM12.9 34.3c-6.1-5.1-6.3-10.4-6.4-12.2l6.9 3c-.9 3.6-1.1 6.8-.5 9.2zM6.4 19.9c.3-5.2 3.2-9 4.5-10.4l7.5 3.3c-.9 1.6-3.2 6-4.5 10.4l-7.5-3.3zm8.9 6.1l9.4 4.2c-3.2 4.7-6.5 7.1-8.3 6.3-1.8-.9-2.3-4.9-1.1-10.5zm.8 14.3l.7-1.6c9.5 3.4 19.8-1.3 23.6-10.2 4-9.3 0-20.1-8.9-24.5l.7-1.6c9.7 4.8 14.2 16.5 10 26.7-4.5 10.1-16 15.1-26.1 11.2z" fill="#26434b"/>
</svg>
