<svg id="Layer_1" xmlns="#www.w3.org/2000/svg" width="50" height="50">
  <style>
    .st0{fill:#26434b}
  </style>
  <g id="Home-intro-block" transform="translate(-300 -458)">
    <g id="noun_1168765_cc-copy-2" transform="translate(300 458)">
      <g id="Group">
        <path id="Shape" class="st0" d="M.8 5.8c-.4 0-.8.4-.8.9v36.7c0 .5.4.8.8.8h48.3c.5 0 .8-.4.8-.8V6.7c0-.5-.4-.8-.8-.8H.8zm47.5 36.7H1.7v-35h46.6v35z"/>
        <path id="Shape_1_" class="st0" d="M6.2 26.1H43c1 0 1.8-.4 1.8-.8 0-.5-.8-.8-1.8-.8H6.2c-1 0-1.8.4-1.8.8 0 .5.8.8 1.8.8z"/>
        <path id="Shape_2_" class="st0" d="M6.2 30.6H43c1 0 1.8-.4 1.8-.8 0-.5-.8-.8-1.8-.8H6.2c-1 0-1.8.4-1.8.8s.8.8 1.8.8z"/>
        <path id="Shape-Copy-2" class="st0" d="M4.9 39.5h8.9c.2 0 .4-.4.4-.8 0-.5-.2-.8-.4-.8H4.9c-.2 0-.4.4-.4.8-.1.4.1.8.4.8z"/>
        <path id="Shape-Copy-3" class="st0" d="M4.9 35.9h8.9c.2 0 .4-.4.4-.8 0-.5-.2-.8-.4-.8H4.9c-.2 0-.4.4-.4.8-.1.4.1.8.4.8z"/>
      </g>
      <text transform="translate(4.441 20.044)" class="st0" letter-spacing="1" font-size="12.438" font-family="DINAlternate-Bold">
        RN
      </text>
    </g>
  </g>
</svg>
