<?xml version="1.0" encoding="utf-8"?>
<!-- Generator: Adobe Illustrator 22.1.0, SVG Export Plug-In . SVG Version: 6.00 Build 0)  -->
<svg version="1.1" id="Layer_1" xmlns="#www.w3.org/2000/svg" xmlns:xlink="#www.w3.org/1999/xlink" x="0px" y="0px"
	 viewBox="0 0 50 50" style="enable-background:new 0 0 50 50;" xml:space="preserve">
<style type="text/css">
	.st0{fill:#26434B;}
	.st1{font-family:'DINAlternate-Bold';}
	.st2{font-size:12.438px;}
</style>
<g id="Home-intro-block" transform="translate(-300 -458)">
	<g id="noun_1168765_cc-copy-2" transform="translate(300 458)">
		<g id="Group">
			<path id="Shape" class="st0" d="M0.8,5.8C0.4,5.8,0,6.2,0,6.7v36.7c0,0.5,0.4,0.8,0.8,0.8h48.3c0.5,0,0.8-0.4,0.8-0.8V6.7
				c0-0.5-0.4-0.8-0.8-0.8L0.8,5.8L0.8,5.8z M48.3,42.5H1.7v-35h46.6V42.5z"/>
			<path id="Shape_1_" class="st0" d="M6.2,26.1H43c1,0,1.8-0.4,1.8-0.8c0-0.5-0.8-0.8-1.8-0.8H6.2c-1,0-1.8,0.4-1.8,0.8
				C4.4,25.8,5.2,26.1,6.2,26.1z"/>
			<path id="Shape_2_" class="st0" d="M6.2,30.6H43c1,0,1.8-0.4,1.8-0.8c0-0.5-0.8-0.8-1.8-0.8H6.2c-1,0-1.8,0.4-1.8,0.8
				S5.2,30.6,6.2,30.6z"/>
			<path id="Shape-Copy-2" class="st0" d="M4.9,39.5h8.9c0.2,0,0.4-0.4,0.4-0.8c0-0.5-0.2-0.8-0.4-0.8H4.9c-0.2,0-0.4,0.4-0.4,0.8
				C4.4,39.1,4.6,39.5,4.9,39.5z"/>
			<path id="Shape-Copy-3" class="st0" d="M4.9,35.9h8.9c0.2,0,0.4-0.4,0.4-0.8c0-0.5-0.2-0.8-0.4-0.8H4.9c-0.2,0-0.4,0.4-0.4,0.8
				C4.4,35.5,4.6,35.9,4.9,35.9z"/>
			<path id="Shape-Copy-3_1_" class="st0" d="M24.2,10.8v9.6c0,0.2,0.2,0.4,0.3,0.4c0.2,0,0.3-0.2,0.3-0.4v-9.6
				c0-0.2-0.2-0.4-0.3-0.4C24.4,10.2,24.2,10.5,24.2,10.8z"/>
		</g>
		<text transform="matrix(1 0 0 1 4.441 20.044)" class="st0 st1 st2">RN</text>
	</g>
</g>
<text transform="matrix(1 0 0 1 27.441 20.044)" class="st0 st1 st2">PN</text>
</svg>
