<svg xmlns="#www.w3.org/2000/svg" viewBox="0 0 626 355">
  <path fill="#047799" d="M0 0h626v355H0z"/>
  <path fill="#00415b" fill-opacity="0.301" d="M0 147.2v27.2c8.6-2.8 17.3-5.4 26.1-7.7 2.5-.6 4.9-1.2 7.4-1.8.6-2.5 1.2-4.9 1.8-7.4 4.5-17.5 10.1-34.6 16.7-51.4-19.7 10.6-37.3 24.6-52 41.1zM25.7 210c-8.6 1.2-17.2 2.6-25.7 4.2V325c8.5 1.6 17.1 3 25.7 4.2-2.6-19.8-4-39.6-4-59.6 0-19.9 1.4-39.8 4-59.6zm296.8 12.8c-21.7-5.3-43.7-9.6-65.9-12.8 2.6 19.7 4 39.6 4 59.6-.1 19.9-1.4 39.8-4 59.6 22.2-3.2 44.1-7.5 65.9-12.8 3.9-15.3 5.9-31 5.9-46.8 0-16.2-2-31.8-5.9-46.8zM187.7 88.3c-15.2-3.9-30.9-5.9-46.7-5.9-16.1 0-31.8 2-46.7 5.9-5.3 21.8-9.6 43.8-12.8 66 19.7-2.6 39.6-4 59.5-4s39.8 1.4 59.5 4c-3.2-22.2-7.4-44.2-12.8-66zm39.3 17.9c6.6 16.8 12.2 33.9 16.7 51.4.6 2.5 1.2 4.9 1.8 7.4 2.5.6 4.9 1.2 7.4 1.8 17.4 4.6 34.5 10.2 51.3 16.8-17.5-32.9-44.4-59.9-77.2-77.4zm-21.6 100.6c-21.7-1.7-43.3-2.7-65-2.7-21.7 0-43.4 1-65 2.7-1.7 21.7-2.7 43.4-2.7 65.1 0 21.7.9 43.4 2.7 65.1 21.6 1.7 43.3 2.7 65 2.7 21.7 0 43.3-1 65-2.7 1.7-21.7 2.7-43.4 2.7-65.1 0-21.7-1-43.4-2.7-65.1zM420.3 194.2c11.6-4.6 23.5-8.5 35.6-11.7 1.7-.4 3.4-.8 5.1-1.3.4-1.7.8-3.4 1.3-5.1 3.2-12.1 7-24.1 11.6-35.7-22.7 12.3-41.4 31-53.6 53.8zm35.5 18.5c-15.4 2.2-30.7 5.2-45.8 8.9-2.7 10.6-4.1 21.5-4.1 32.5 0 11.2 1.4 22.1 4.1 32.5 15.1 3.7 30.4 6.7 45.8 8.9-1.8-13.7-2.8-27.6-2.8-41.4 0-13.9.9-27.7 2.8-41.4zm6.6 121.1c-.5-1.7-.8-3.4-1.3-5.1-1.7-.4-3.4-.8-5.1-1.3-12.1-3.2-24-7.1-35.7-11.7 8 15.1 18.9 28.4 32 39.2h16.4c-2.4-6.9-4.5-13.9-6.3-21.1zm151.3-6.4c-1.7.5-3.4.8-5.1 1.3-.4 1.7-.8 3.4-1.3 5.1-1.9 7.1-4 14.2-6.3 21.2h16.4c3-2.5 5.9-5.1 8.7-7.8V324c-4.2 1.2-8.3 2.3-12.4 3.4zm-77.8 9.8c-13.8 0-27.6-1-41.3-2.8 1 6.9 2.1 13.8 3.4 20.7h75.8c1.3-6.9 2.5-13.7 3.4-20.7-13.6 1.8-27.4 2.7-41.3 2.8zm80.4-124.5c1.8 13.7 2.8 27.6 2.8 41.4 0 13.9-1 27.7-2.8 41.4 3.2-.5 6.5-1 9.7-1.5v-79.8c-3.2-.6-6.5-1.1-9.7-1.5zM568.4 128c-10.6-2.7-21.5-4.1-32.5-4.1-11.2 0-22.1 1.4-32.5 4.1-3.7 15.1-6.7 30.4-8.9 45.9 13.7-1.8 27.5-2.8 41.3-2.8 13.8 0 27.6 1 41.3 2.8-2.1-15.4-5-30.7-8.7-45.9zm27.3 12.5c4.6 11.7 8.5 23.6 11.6 35.7.5 1.7.8 3.4 1.3 5.1 1.7.4 3.4.8 5.1 1.3 4.1 1.1 8.2 2.2 12.3 3.5v-23.2c-8.9-8.9-19.1-16.4-30.3-22.4zm-15 69.9c-15.1-1.2-30.1-1.9-45.2-1.9-15.1 0-30.1.7-45.2 1.9-1.2 15.1-1.9 30.2-1.9 45.2 0 15.1.7 30.2 1.9 45.3 15.1 1.2 30.1 1.9 45.2 1.9 15.1 0 30.1-.7 45.2-1.9 1.2-15.1 1.9-30.2 1.9-45.3-.1-15-.8-30.1-1.9-45.2zM319 0c-7.1 6.3-13.1 13.9-17.6 22.4 7.2-2.8 14.5-5.2 21.9-7.2 1-.3 2.1-.5 3.2-.8.2-1 .5-2.1.8-3.1 1-3.8 2.1-7.6 3.3-11.3H319zm4.2 33.7c-9.5 1.4-18.9 3.2-28.1 5.5-1.7 6.5-2.5 13.2-2.5 20 0 6.9.9 13.6 2.5 20 9.3 2.3 18.7 4.1 28.1 5.5-1.1-8.4-1.7-16.9-1.7-25.4-.1-8.7.5-17.2 1.7-25.6zm4 74.5c-.3-1-.5-2.1-.8-3.2-1-.3-2.1-.5-3.2-.8-7.4-1.9-14.8-4.3-21.9-7.2 7.5 14 19 25.5 33 33-2.8-7.1-5.1-14.4-7.1-21.8zm93-4c-1 .3-2.1.5-3.2.8-.2 1.1-.5 2.1-.8 3.2-1.9 7.4-4.3 14.8-7.2 21.9 14-7.5 25.5-19 33-33-7.1 2.8-14.4 5.2-21.8 7.1zm-47.8 6c-8.5 0-17-.6-25.4-1.7 1.4 9.5 3.2 18.9 5.5 28.2 6.5 1.7 13.2 2.5 19.9 2.5 6.9 0 13.6-.9 19.9-2.5 2.3-9.3 4.1-18.7 5.5-28.2-8.4 1.1-16.9 1.7-25.4 1.7zm77.5-71c-9.3-2.3-18.7-4.1-28.1-5.5 1.1 8.4 1.7 16.9 1.7 25.4s-.6 17-1.7 25.4c9.5-1.4 18.9-3.2 28.1-5.5 1.7-6.5 2.5-13.2 2.5-20 0-6.8-.8-13.5-2.5-19.8zM396.2 0h-47.6c-.6 3.3-1.1 6.6-1.6 9.9 8.4-1.1 16.9-1.7 25.4-1.7s17 .6 25.4 1.7c-.5-3.3-1-6.6-1.6-9.9zm28.2 0H413c1.2 3.7 2.3 7.5 3.3 11.3.3 1 .5 2.1.8 3.2 1 .3 2.1.5 3.1.8 7.4 2 14.8 4.3 21.9 7.2-4.5-8.6-10.5-16.2-17.7-22.5zm-24.5 32.3c-9.2-.8-18.5-1.2-27.8-1.2s-18.5.4-27.8 1.2c-.7 9.3-1.1 18.5-1.1 27.8s.4 18.6 1.1 27.8c9.2.7 18.5 1.2 27.8 1.2s18.5-.4 27.8-1.2c.7-9.3 1.2-18.5 1.2-27.8-.1-9.3-.5-18.5-1.2-27.8z"/>
</svg>
