<svg width="626" height="347" xmlns="#www.w3.org/2000/svg" xmlns:xlink="#www.w3.org/1999/xlink">
  <defs>
    <path id="a" d="M0 0h627v347H0z"/>
  </defs>
  <g fill="none" fill-rule="evenodd">
    <mask id="b" fill="#fff">
      <use xlink:href="#a"/>
    </mask>
    <use fill="#DCE4B6" xlink:href="#a"/>
    <g stroke-width="10" mask="url(#b)" stroke-linecap="round" stroke-linejoin="round">
      <g stroke="#D5DFB3">
        <path d="M473.556 283.265l50.533-50.66h-50.533zM170.198 283.265l50.534-50.66h-50.534zM574.667 283.265l50.533-50.66h-50.533zM271.31 283.265l50.533-50.66H271.31zM170.222 80.862l50.534-50.66h-50.534zM473.556 80.862l50.533-50.66h-50.533zM473.556 384.467l50.533-50.66h-50.533zM170.198 384.467l50.534-50.66h-50.534zM271.333 80.862l50.534-50.66h-50.534zM574.667 80.862l50.533-50.66h-50.533zM574.667 384.467l50.533-50.66h-50.533zM271.31 384.467l50.533-50.66H271.31zM170.222 182.064l50.534-50.66h-50.534zM473.556 182.064l50.533-50.66h-50.533zM271.333 182.064l50.534-50.66h-50.534zM574.667 182.064l50.533-50.66h-50.533zM524.111 283.265l50.534-50.66H524.11z"/>
        <path d="M220.69 232.668l50.66 50.534v-50.534zM625.222 283.265l50.534-50.66h-50.534zM321.865 283.265l50.534-50.66h-50.534zM220.778 80.862l50.533-50.66h-50.533zM524.111 80.862l50.534-50.66H524.11zM524.111 384.467l50.534-50.66H524.11zM220.754 384.467l50.533-50.66h-50.533zM321.889 80.862l50.533-50.66H321.89zM625.222 80.862l50.534-50.66h-50.534zM625.222 384.467l50.534-50.66h-50.534zM321.865 384.467l50.534-50.66h-50.534zM524.111 182.064l50.534-50.66H524.11zM321.889 182.064l50.533-50.66H321.89zM625.222 182.064l50.534-50.66h-50.534z"/>
        <path d="M220.778 30.261l50.533-50.66h-50.533zM524.111 30.261l50.534-50.66H524.11zM524.111 333.866l50.534-50.66H524.11zM220.754 333.866l50.533-50.66h-50.533zM321.889 30.261l50.533-50.66H321.89zM625.222 30.261l50.534-50.66h-50.534zM625.222 333.866l50.534-50.66h-50.534zM321.865 333.866l50.534-50.66h-50.534zM220.778 131.463l50.533-50.66h-50.533zM524.111 131.463l50.534-50.66H524.11zM321.889 131.463l50.533-50.66H321.89zM625.222 131.463l50.534-50.66h-50.534zM524.111 232.664l50.534-50.66H524.11zM321.889 232.664l50.533-50.66H321.89zM625.222 232.664l50.534-50.66h-50.534zM69.111 30.261l50.534-50.66H69.11zM-32 30.261l50.534-50.66H-32zM372.444 30.261l50.534-50.66h-50.534zM372.444 333.866l50.534-50.66h-50.534zM69.111 333.866l50.534-50.66H69.11zM-32 333.866l50.534-50.66H-32zM69.111 131.463l50.534-50.66H69.11zM-32 131.463l50.534-50.66H-32zM372.444 131.463l50.534-50.66h-50.534zM69.111 232.664l50.534-50.66H69.11zM-32 232.664l50.534-50.66H-32zM119.667 232.605l50.533 50.66h-50.533zM18.556 232.605l50.533 50.66H18.556zM119.667 30.202l50.533 50.66h-50.533zM18.556 30.202l50.533 50.66H18.556zM423 30.202l50.534 50.66H423zM423 333.806l50.534 50.66H423zM119.667 333.806l50.533 50.66h-50.533zM18.556 333.806l50.533 50.66H18.556zM119.667 131.403l50.533 50.66h-50.533zM18.556 131.403l50.533 50.66H18.556zM170.222-20.4l50.534 50.661h-50.534zM473.556-20.4l50.533 50.661h-50.533zM473.556 283.205l50.533 50.66h-50.533z"/>
        <path d="M170.198 283.205l50.534 50.66h-50.534zM271.333-20.4l50.534 50.661h-50.534zM574.667-20.4L625.2 30.262h-50.533zM574.667 283.205l50.533 50.66h-50.533zM271.31 283.205l50.533 50.66H271.31zM170.222 80.802l50.534 50.66h-50.534zM473.556 80.802l50.533 50.66h-50.533zM271.333 80.802l50.534 50.66h-50.534zM574.667 80.802l50.533 50.66h-50.533zM170.222 182.004l50.534 50.66h-50.534zM271.333 182.004l50.534 50.66h-50.534zM574.667 182.004l50.533 50.66h-50.533zM524.113 232.605l-50.557 50.598h50.557z"/>
        <path d="M220.756 232.605l-50.558 50.598h50.558zM625.224 232.605l-50.557 50.598h50.557zM321.867 232.605l-50.557 50.598h50.557zM220.78 30.202L170.222 80.8h50.558zM524.113 30.202L473.556 80.8h50.557zM524.113 333.806l-50.557 50.599h50.557zM220.756 333.806l-50.558 50.599h50.558zM321.89 30.202L271.334 80.8h50.558zM625.224 30.202L574.667 80.8h50.557zM625.224 333.806l-50.557 50.599h50.557zM321.867 333.806l-50.557 50.599h50.557zM220.78 131.403l-50.558 50.599h50.558zM524.113 131.403l-50.557 50.599h50.557zM321.89 131.403l-50.557 50.599h50.558zM625.224 131.403l-50.557 50.599h50.557z"/>
        <path d="M574.668 232.605l-50.557 50.598h50.557zM675.78 232.605l-50.558 50.598h50.558zM372.422 232.605l-50.557 50.598h50.557zM271.335 30.202L220.778 80.8h50.557zM574.668 30.202L524.111 80.8h50.557zM574.668 333.806l-50.557 50.599h50.557zM271.311 333.806l-50.557 50.599h50.557zM372.446 30.202L321.89 80.8h50.557zM675.78 30.202L625.222 80.8h50.558zM675.78 333.806l-50.558 50.599h50.558zM372.422 333.806l-50.557 50.599h50.557zM574.668 131.403l-50.557 50.599h50.557zM372.446 131.403l-50.557 50.599h50.557zM675.78 131.403l-50.558 50.599h50.558zM271.335-20.4l-50.557 50.6h50.557zM574.668-20.4l-50.557 50.6h50.557zM574.668 283.205l-50.557 50.599h50.557zM271.311 283.205l-50.557 50.599h50.557zM372.446-20.4L321.89 30.2h50.557zM675.78-20.4l-50.558 50.6h50.558zM675.78 283.205l-50.558 50.599h50.558zM372.422 283.205l-50.557 50.599h50.557zM271.335 80.802l-50.557 50.599h50.557zM574.668 80.802l-50.557 50.599h50.557zM372.446 80.802l-50.557 50.599h50.557zM675.78 80.802l-50.558 50.599h50.558zM574.668 182.004l-50.557 50.598h50.557zM372.446 182.004l-50.557 50.598h50.557zM675.78 182.004l-50.558 50.598h50.558zM119.668-20.4L69.111 30.2h50.557zM18.557-20.4L-32 30.2h50.557z"/>
        <path d="M423.002-20.4l-50.558 50.6h50.558zM423.002 283.205l-50.558 50.599h50.558zM119.668 283.205l-50.557 50.599h50.557zM18.557 283.205L-32 333.804h50.557zM119.668 80.802l-50.557 50.599h50.557zM18.557 80.802L-32 131.401h50.557zM423.002 80.802l-50.558 50.599h50.558zM119.668 182.004l-50.557 50.598h50.557zM18.557 182.004L-32 232.602h50.557zM372.422 232.627l50.598 50.558v-50.558zM69.089 232.627l50.598 50.558v-50.558zM-32.023 232.627l50.599 50.558v-50.558zM69.088 30.224l50.599 50.558V30.224zM-32.023 30.224l50.599 50.558V30.224zM372.422 30.224l50.598 50.558V30.224zM372.422 333.829l50.598 50.557V333.83zM69.089 333.829l50.598 50.557V333.83zM-32.023 333.829l50.599 50.557V333.83zM69.089 131.426l50.598 50.557v-50.557zM-32.023 131.426l50.599 50.557v-50.557zM372.422 131.426l50.598 50.557v-50.557zM119.644-20.377l50.599 50.558v-50.558zM18.533-20.377L69.13 30.181v-50.558z"/>
        <path d="M422.977-20.377l50.599 50.558v-50.558zM422.977 283.228l50.599 50.557v-50.557zM119.644 283.228l50.599 50.557v-50.557zM18.533 283.228l50.598 50.557v-50.557zM119.644 80.825l50.599 50.557V80.825zM18.533 80.825l50.598 50.557V80.825zM422.977 80.825l50.599 50.557V80.825zM119.644 182.027l50.599 50.557v-50.557zM18.533 182.027l50.598 50.557v-50.557zM119.644 232.627l50.599 50.558v-50.558zM18.533 232.627l50.598 50.558v-50.558zM119.644 30.224l50.599 50.558V30.224zM18.533 30.224L69.13 80.782V30.224zM422.977 30.224l50.599 50.558V30.224zM422.977 333.829l50.599 50.557V333.83zM119.644 333.829l50.599 50.557V333.83zM18.533 333.829l50.598 50.557V333.83zM119.644 131.426l50.599 50.557v-50.557zM18.533 131.426l50.598 50.557v-50.557zM170.2-20.377l50.598 50.558v-50.558z"/>
        <path d="M473.533-20.377l50.598 50.558v-50.558zM473.533 283.228l50.598 50.557v-50.557zM170.176 283.228l50.598 50.557v-50.557zM271.31-20.377l50.6 50.558v-50.558zM574.644-20.377l50.599 50.558v-50.558zM574.644 283.228l50.599 50.557v-50.557zM271.287 283.228l50.598 50.557v-50.557zM170.2 80.825l50.598 50.557V80.825zM473.533 80.825l50.598 50.557V80.825zM271.31 80.825l50.6 50.557V80.825zM574.644 80.825l50.599 50.557V80.825zM170.2 182.027l50.598 50.557v-50.557zM271.31 182.027l50.6 50.557v-50.557zM574.644 182.027l50.599 50.557v-50.557zM372.444 232.605l50.558 50.598h-50.558zM69.111 232.605l50.557 50.598H69.111zM-32 232.605l50.557 50.598H-32zM69.111 30.202L119.668 80.8H69.111zM-32 30.202L18.557 80.8H-32zM372.444 30.202L423.002 80.8h-50.558zM372.444 333.806l50.558 50.599h-50.558zM69.111 333.806l50.557 50.599H69.111zM-32 333.806l50.557 50.599H-32zM69.111 131.403l50.557 50.599H69.111zM-32 131.403l50.557 50.599H-32zM372.444 131.403l50.558 50.599h-50.558zM119.667-20.4l50.557 50.6h-50.557zM18.556-20.4l50.557 50.6H18.556zM423-20.4l50.557 50.6H423zM423 283.205l50.557 50.599H423zM119.667 283.205l50.557 50.599h-50.557zM18.556 283.205l50.557 50.599H18.556zM119.667 80.802l50.557 50.599h-50.557zM18.556 80.802l50.557 50.599H18.556zM423 80.802l50.557 50.599H423zM119.667 182.004l50.557 50.598h-50.557zM18.556 182.004l50.557 50.598H18.556z"/>
      </g>
      <g stroke="#337165">
        <path d="M220.755 232.627l50.66 50.534v-50.534zM473.534 232.605L423 283.265h50.534zM473.534 131.403L423 182.063h50.534zM372.422 131.426l50.66 50.533v-50.533zM473.556 231.874l50.533-50.66h-50.533zM220.778 131.403l50.533 50.66h-50.533z"/>
        <path d="M220.778 181.213l50.533 50.66h-50.533zM372.422 232.605l-50.533 50.66h50.533z"/>
      </g>
      <g fill="#A6D59B">
        <path stroke="#057565" d="M473.533 283.228l50.598 50.557v-50.557zM372.422 283.228l50.598 50.557v-50.557zM372.422 232.627l50.598 50.558v-50.558zM220.755 182.027l50.599 50.557v-50.557zM272.1 231.837l50.6 50.557v-50.557zM220.755 131.426l50.599 50.557v-50.557zM524.113 232.605l-50.557 50.598h50.557zM322.68 131.403l-50.557 50.599h50.558z"/>
        <path stroke="#057565" d="M321.866 131.426l50.599 50.557v-50.557zM272.1 182.027l50.6 50.557v-50.557z"/>
        <path stroke="#057565" d="M321.866 182.027l50.599 50.557v-50.557z"/>
        <path stroke="#337165" d="M372.422 182.027l50.598 50.557v-50.557z"/>
        <path stroke="#057565" d="M321.889 283.203l50.557-50.598H321.89zM423 283.203l50.557-50.598H423z"/>
        <path stroke="#057565" d="M473.556 283.203l50.557-50.598h-50.557zM524.111 231.812l50.557-50.599h-50.557z"/>
        <path stroke="#057565" d="M524.113 181.213l-50.557 50.599h50.557z"/>
        <path stroke="#057565" d="M473.557 181.213L423 231.812h50.557zM574.668 131.403l-50.557 50.599h50.557zM372.444 232.605l50.558 50.598h-50.558zM272.123 232.605l50.558 50.598h-50.558zM322.7 131.426l-50.6 50.557v-50.557z"/>
        <path stroke="#057565" d="M272.123 181.213l50.558 50.599h-50.558z"/>
        <path stroke="#057565" d="M321.885 181.213l50.557 50.599h-50.557zM372.444 131.403l50.558 50.599h-50.558z"/>
        <path stroke="#057565" d="M321.889 131.403l50.557 50.599H321.89z"/>
      </g>
    </g>
  </g>
</svg>
