<svg xmlns="#www.w3.org/2000/svg" viewBox="0 0 16 18">
  <g>
    <g transform="translate(-1 -34)">
      <g transform="translate(0 34.823)">
        <g transform="translate(1)" id="PDF-Flag-Copy-16">
          <g>
            <path fill="#fff" d="M4 0h8l4 4v11c0 1.1-.9 2-2 2H4c-1.1 0-2-.9-2-2V2c0-1.1.9-2 2-2z"/>
            <path fill="none" stroke="#8b8b8b" d="M15.5 4.2L11.8.5H4c-.8 0-1.5.7-1.5 1.5v13c0 .8.7 1.5 1.5 1.5h10c.8 0 1.5-.7 1.5-1.5V4.2z"/>
          </g>
          <path d="M14 11.9c-.1.1-.3.1-.4.1-.4 0-.9-.4-1.6-.9.3 0 .5-.1.7-.1.4 0 .5 0 .9.2s.4.6.4.7zM8 11l.3-.6c.3-.6.4-1 .6-1.4.3.5.6.9.9 1.3l.1.1c-.7.2-1.3.4-1.9.6zm1.1-6c.2 0 .3.5.3 1s-.1.8-.2 1C9 6.6 9 6.1 9 5.7c0 0 0-.7.1-.7zM6 14c.2-.4.8-1.1 1.7-1.7.1 0 .2-.2.3-.3-.9 1.3-1.6 1.8-2 2zm7.9-3.5c-.2-.2-.6-.3-1.2-.3-.4 0-.9 0-1.4.1-.2-.1-.5-.3-.7-.5-.5-.4-.9-1.1-1.2-1.8v-.2s.3-1.7.2-2.2V5.3c-.1-.1-.2-.3-.5-.3H9c-.3 0-.5.1-.6.3-.1.7 0 1.7.4 2.9l-.1.2c-.3.6-.5 1.2-.8 1.7v.1c-.3.5-.5 1-.7 1.4l-.2.1s-.4.2-.5.3c-.8.5-1.3 1-1.4 1.4 0 .1 0 .3.1.4l.2.1c.1.1.2.1.3.1.6 0 1.2-.7 2.1-2.3 1-.3 2.2-.6 3.2-.8.8.4 1.7.8 2.3.8h.3c.1 0 .2-.1.3-.2.1-.2.1-.5.1-.7 0-.1-.1-.2-.1-.3z" fill="#c66"/>
          <path fill="none" stroke="#8b8b8b" d="M11.5.5v4h4"/>
        </g>
      </g>
    </g>
  </g>
  <path fill="#3a3a3a" d="M8.5 11.1v1.5c0 1.3-1 2.3-2.3 2.3H2.3C1 15 0 14 0 12.6v-1.5c0-.7.3-1.3.8-1.8V7.6c0-1.9 1.6-3.5 3.5-3.5s3.5 1.6 3.5 3.5v1.7c.4.5.7 1.1.7 1.8z"/>
  <path fill="#fff" d="M6.2 7.6v1.2H2.3V7.6c0-1.1.9-1.9 1.9-1.9 1.1 0 2 .8 2 1.9z"/>
  <path fill="#fff" d="M3.9 12.6c-.5-.2-.8-.5-.8-1.1 0-.6.5-1.2 1.2-1.2s1.2.5 1.2 1.2c0 .5-.3.9-.8 1.1v.9h-.8v-.9z"/>
</svg>
