
<svg width="14" height="18" viewBox="0 0 14 18" xmlns="#www.w3.org/2000/svg" xmlns:xlink="#www.w3.org/1999/xlink">
  <defs>
    <path d="M2 0h8l4 4v11c0 1.105-.895 2-2 2H2c-1.105 0-2-.895-2-2V2C0 .895.895 0 2 0z" id="a"/>
  </defs>
  <g fill="none" fill-rule="evenodd">
    <g transform="translate(0 .823)">
      <use fill="#FFF" xlink:href="#a"/>
      <path stroke="#8B8B8B" d="M13.5 4.207L9.793.5H2C1.172.5.5 1.172.5 2v13c0 .828.672 1.5 1.5 1.5h10c.828 0 1.5-.672 1.5-1.5V4.207z"/>
    </g>
    <path d="M11.97 12.69c-.07.082-.263.133-.385.133-.4 0-.89-.36-1.585-.943.268-.038.51-.057.73-.057.4 0 .516 0 .91.196.39.19.393.588.33.67zM6 11.823c.107-.202.217-.417.328-.646.272-.556.447-.995.574-1.354.256.504.576.93.948 1.272.047.044.096.085.15.128-.76.164-1.42.36-2 .6zm1.074-6c.18 0 .282.496.29.965.008.465-.09.79-.214 1.035C7.048 7.463 7 6.898 7 6.53c0 0-.008-.707.074-.707zm-3.074 9c.157-.367.77-1.094 1.674-1.74.056-.04.197-.155.326-.26-.946 1.315-1.58 1.836-2 2zm7.854-3.457c-.18-.18-.58-.275-1.186-.283-.41-.005-.904.033-1.426.105-.233-.137-.472-.285-.662-.466-.506-.485-.928-1.156-1.192-1.894.016-.07.032-.13.045-.19 0 0 .285-1.658.208-2.218-.01-.08-.015-.1-.036-.16l-.023-.067c-.076-.182-.23-.376-.47-.365l-.138-.005H6.97c-.267 0-.486.14-.542.346-.174.654.006 1.63.33 2.893l-.084.207c-.232.577-.522 1.16-.778 1.67l-.034.068c-.27.54-.515.997-.736 1.385l-.23.124c-.015.01-.408.22-.5.277-.78.477-1.3 1.02-1.386 1.45-.027.134-.006.31.133.393l.22.113c.097.05.2.073.302.073.557 0 1.203-.706 2.09-2.293 1.03-.342 2.2-.628 3.225-.784.78.45 1.74.763 2.347.763.108 0 .2-.012.277-.034.116-.03.213-.097.274-.19.116-.182.142-.43.108-.685-.008-.075-.068-.17-.132-.234z" fill="#C66" fill-rule="nonzero"/>
    <path stroke="#8B8B8B" d="M9.5 1.323v4h4"/>
  </g>
</svg>
