<?xml version="1.0" standalone="no"?>
<!DOCTYPE svg PUBLIC "-//W3C//DTD SVG 20010904//EN"
 "#www.w3.org/TR/2001/REC-SVG-20010904/DTD/svg10.dtd">
<svg version="1.0" xmlns="#www.w3.org/2000/svg"
 width="700.000000pt" height="700.000000pt" viewBox="0 0 700.000000 700.000000"
 preserveAspectRatio="xMidYMid meet">
<metadata>
Created by potrace 1.11, written by Peter Selinger 2001-2013
</metadata>
<g transform="translate(0.000000,700.000000) scale(0.100000,-0.100000)"
fill="#000000" stroke="none">
<path d="M3298 6994 c-2 -1 -37 -5 -78 -9 -41 -3 -118 -12 -170 -20 -52 -8
-111 -17 -130 -20 -54 -8 -213 -47 -231 -56 -14 -7 -27 -50 -46 -154 -2 -11
-12 -58 -23 -105 -11 -47 -22 -96 -24 -110 -2 -14 -13 -72 -25 -130 -24 -125
-29 -148 -41 -220 -6 -30 -12 -64 -14 -75 -2 -11 -9 -54 -16 -95 -6 -41 -14
-86 -16 -100 -2 -14 -7 -44 -10 -66 -2 -23 -6 -51 -9 -62 -2 -11 -7 -41 -11
-67 l-7 -47 49 6 c27 4 69 9 94 12 25 3 59 7 75 9 17 2 62 7 100 10 39 3 86 8
105 10 19 2 82 7 140 10 58 4 132 8 165 10 71 5 596 5 675 0 30 -2 100 -6 155
-9 55 -4 123 -9 150 -11 28 -3 77 -7 110 -10 58 -6 103 -11 175 -19 19 -3 59
-8 88 -11 l53 -7 -6 33 c-3 19 -8 45 -9 59 -19 141 -66 418 -111 653 -19 98
-37 192 -40 209 -3 17 -8 34 -10 38 -2 4 -7 22 -10 41 -3 19 -10 50 -15 69 -5
19 -11 47 -14 63 -10 56 -17 67 -54 76 -70 19 -167 40 -232 51 -36 5 -76 12
-90 14 -101 18 -259 29 -457 31 -128 1 -234 1 -235 -1z"/>
<path d="M1809 6512 c-490 -301 -895 -726 -1188 -1246 -34 -60 -60 -110 -59
-111 2 -2 66 22 143 52 236 91 767 262 860 276 39 5 43 12 61 101 33 161 180
643 277 909 20 53 35 97 34 97 -1 0 -59 -35 -128 -78z"/>
<path d="M5152 6413 c50 -141 111 -332 182 -573 8 -25 31 -113 52 -197 42
-166 32 -150 111 -168 148 -35 513 -151 728 -232 94 -36 179 -67 190 -70 11
-3 26 -10 33 -16 29 -23 19 6 -39 109 -107 188 -297 459 -400 569 -26 28 -64
70 -86 95 -113 131 -361 348 -548 478 -104 72 -263 172 -274 172 -5 0 19 -75
51 -167z"/>
<path d="M3147 4763 c-2 -1 -71 -4 -154 -8 -149 -5 -263 -11 -377 -20 -32 -2
-104 -7 -160 -11 -56 -3 -102 -7 -103 -7 -4 -4 -13 -92 -18 -187 -4 -58 -8
-132 -10 -165 -27 -421 -27 -1429 0 -1731 5 -65 18 -297 18 -321 -1 -13 2 -23
6 -24 3 0 15 -2 26 -4 23 -5 111 -12 240 -20 50 -3 117 -7 150 -10 360 -25
1115 -25 1505 0 130 8 365 26 386 29 21 3 21 5 28 116 4 58 9 134 11 170 32
431 37 1229 10 1690 -13 220 -18 308 -20 330 -2 14 -3 46 -4 72 -1 55 -1 55
-126 63 -49 3 -117 8 -150 10 -340 23 -475 27 -878 29 -208 1 -379 0 -380 -1z"/>
<path d="M1399 4606 c-2 -2 -28 -7 -58 -11 -30 -4 -63 -9 -75 -11 -12 -2 -37
-7 -56 -10 -19 -3 -91 -17 -160 -30 -69 -13 -136 -25 -150 -28 -14 -2 -81 -16
-150 -31 -69 -14 -134 -28 -145 -30 -11 -3 -91 -21 -178 -42 l-157 -37 -10
-36 c-16 -61 -49 -232 -60 -315 -6 -44 -13 -93 -15 -110 -19 -144 -26 -526
-12 -705 10 -127 43 -351 70 -479 l22 -105 110 -28 c195 -49 540 -121 775
-162 274 -47 295 -49 294 -26 0 8 -3 38 -7 65 -4 28 -9 75 -12 105 -3 30 -8
71 -10 90 -2 19 -7 76 -10 125 -4 50 -8 106 -10 125 -23 228 -23 971 0 1160 2
19 7 76 10 125 3 50 8 101 10 115 2 14 6 57 10 95 4 39 10 98 14 133 7 59 6
62 -14 62 -12 0 -24 -2 -26 -4z"/>
<path d="M5584 4573 c3 -21 8 -69 12 -108 4 -38 8 -79 10 -89 2 -10 6 -55 9
-100 4 -45 8 -94 10 -111 26 -215 27 -1119 0 -1320 -2 -17 -6 -66 -10 -110 -3
-44 -8 -96 -10 -115 -10 -86 -15 -129 -20 -178 l-6 -54 41 6 c22 3 82 13 133
21 51 9 106 18 122 21 17 2 64 11 105 19 41 8 86 17 100 19 14 3 39 8 55 11
17 3 75 15 130 26 55 12 107 22 115 24 8 2 65 15 125 29 61 15 119 29 130 31
42 10 120 29 123 31 2 1 5 14 8 29 3 15 11 55 19 89 63 274 96 745 71 1005 -4
36 -9 91 -12 121 -9 89 -34 259 -51 340 -8 41 -17 89 -20 105 -9 56 -15 60
-180 98 -87 21 -167 39 -178 42 -22 4 -207 44 -240 51 -11 2 -31 6 -45 9 -14
2 -74 14 -135 25 -113 22 -200 36 -270 46 -22 3 -58 9 -80 14 -65 15 -67 14
-61 -27z"/>
<path d="M569 1827 c5 -12 30 -57 55 -100 25 -43 46 -80 46 -83 0 -11 147
-225 223 -324 140 -183 354 -407 517 -541 36 -30 67 -56 70 -60 3 -3 43 -34
90 -67 47 -34 91 -67 99 -73 7 -7 71 -47 141 -90 l128 -78 -40 112 c-106 298
-198 602 -271 891 l-22 89 -40 12 c-22 7 -94 27 -160 45 -200 54 -649 207
-790 269 -48 22 -55 21 -46 -2z"/>
<path d="M6315 1794 c-203 -79 -524 -185 -720 -239 -93 -26 -171 -48 -172 -49
-1 -1 -21 -74 -43 -161 -22 -88 -45 -173 -50 -190 -5 -16 -21 -70 -35 -120
-41 -139 -143 -448 -175 -533 -16 -41 -28 -78 -25 -80 2 -2 19 5 37 16 18 11
58 35 88 53 224 130 539 394 737 617 37 43 73 82 79 87 52 48 277 373 353 510
19 33 45 79 58 103 14 23 21 42 16 41 -4 0 -71 -25 -148 -55z"/>
<path d="M2454 1293 c4 -26 9 -55 11 -63 2 -8 6 -33 9 -55 5 -43 32 -214 41
-255 3 -14 7 -43 10 -65 3 -22 12 -72 20 -112 8 -39 17 -89 21 -110 3 -21 7
-45 9 -53 2 -8 7 -31 10 -50 3 -19 22 -107 42 -195 19 -88 37 -171 40 -185 6
-37 20 -48 66 -55 23 -4 67 -13 97 -21 30 -8 75 -17 100 -20 25 -3 54 -8 65
-11 11 -3 31 -7 45 -8 14 -2 48 -5 75 -9 28 -3 77 -9 110 -13 79 -9 490 -9
580 0 96 10 164 18 189 23 12 2 62 11 111 19 138 24 236 50 245 66 7 13 55
216 66 279 2 14 11 54 19 90 7 36 23 117 34 180 12 63 23 124 25 136 7 34 45
266 51 309 3 22 8 51 10 65 3 14 7 43 10 65 3 22 8 53 11 69 l6 28 -53 -7
c-30 -3 -65 -8 -79 -10 -41 -6 -121 -14 -190 -21 -36 -3 -81 -7 -100 -9 -19
-2 -91 -7 -160 -10 -69 -4 -145 -9 -170 -11 -61 -5 -580 -5 -655 1 -33 2 -105
6 -160 9 -55 4 -116 8 -135 10 -19 3 -71 7 -115 11 -44 3 -87 8 -95 10 -8 2
-42 6 -75 10 -33 3 -80 9 -103 11 l-44 5 6 -48z"/>
</g>
</svg>
