<svg xmlns="#www.w3.org/2000/svg" xmlns:xlink="#www.w3.org/1999/xlink" width="240" height="24" viewBox="0 0 240 24" xml:space="preserve">
  <style type="text/css">
    .theme-slate {fill: #4A4A4A; }
    .theme-orange {fill: #E06535; }
    .theme-plum {fill: #5B4270; }
    .theme-navy {fill: #00415B; }
    .theme-metro {fill: #1893C1; }
    .theme-seafoam {fill: #017C77; }
    .theme-wasabi {fill: #7B9324; }
    .theme-fern {fill: #4A7C3B; }
    .theme-steel {fill: #66889B; }
    .theme-teal {fill: #078292; }
  </style>

  <symbol id="phone" width="24" height="24">
    <path d="M16.7 24H7.3c-1.7 0-3.1-1.4-3.1-3.1V3.1C4.2 1.4 5.6 0 7.3 0h9.4c1.7 0 3.1 1.4 3.1 3.1v17.7c0 1.8-1.4 3.2-3.1 3.2zM7.3 2.1c-.6 0-1 .5-1 1v17.7c0 .6.5 1 1 1h9.4c.6 0 1-.5 1-1V3.1c0-.6-.5-1-1-1H7.3zM12 17.7c.9 0 1.6.7 1.6 1.6s-.7 1.6-1.6 1.6-1.6-.7-1.6-1.6.7-1.6 1.6-1.6z"/>
  </symbol>

  <use xlink:href="#phone" x="0" y="0" class="theme-slate"></use>
  <use xlink:href="#phone" x="24" y="0" class="theme-orange"></use>
  <use xlink:href="#phone" x="48" y="0" class="theme-plum"></use>
  <use xlink:href="#phone" x="72" y="0" class="theme-navy"></use>
  <use xlink:href="#phone" x="96" y="0" class="theme-metro"></use>
  <use xlink:href="#phone" x="120" y="0" class="theme-seafoam"></use>
  <use xlink:href="#phone" x="144" y="0" class="theme-wasabi"></use>
  <use xlink:href="#phone" x="168" y="0" class="theme-fern"></use>
  <use xlink:href="#phone" x="192" y="0" class="theme-steel"></use>
  <use xlink:href="#phone" x="216" y="0" class="theme-teal"></use>
</svg>
