<svg xmlns="#www.w3.org/2000/svg" xmlns:xlink="#www.w3.org/1999/xlink" width="240" height="24" viewBox="0 0 240 24" xml:space="preserve">
  <style type="text/css">
    .theme-slate {fill: #4A4A4A; }
    .theme-orange {fill: #E06535; }
    .theme-plum {fill: #5B4270; }
    .theme-navy {fill: #00415B; }
    .theme-metro {fill: #1893C1; }
    .theme-seafoam {fill: #017C77; }
    .theme-wasabi {fill: #7B9324; }
    .theme-fern {fill: #4A7C3B; }
    .theme-steel {fill: #66889B; }
    .theme-teal {fill: #078292; }
  </style>

  <symbol id="fax" width="24" height="24">
    <path d="M21.9 9.8H9.5c-.5 0-.8.4-.8.8 0 .5.4.8.8.8h12v9.2c0 .9-.7 1.6-1.6 1.6H9.5c-.5 0-.8.4-.8.8s.4 1 .8 1H20c1.8 0 3.2-1.5 3.2-3.2v-9.6c0-.8-.6-1.4-1.3-1.4z"/>
    <path d="M11.4 17.8h.8c.5 0 .8-.4.8-.8s-.4-.8-.8-.8h-.8c-.5 0-.8.4-.8.8s.3.8.8.8zM9.9 8.7c.5 0 .8-.4.8-.8V1.7h4.8V5c0 .7.6 1.3 1.3 1.3H20v1.6c0 .5.4.8.8.8s.8-.4.8-.8V5.5c0-.2-.1-.4-.2-.6L16.8.3c-.1-.2-.3-.3-.5-.3H9.9c-.5 0-.9.4-.9.8v7c0 .5.4.9.9.9zm7.3-4.1V3l1.6 1.6h-1.6zM11.4 15.2h.8c.5 0 .8-.4.8-.8 0-.5-.4-.8-.8-.8h-.8c-.5 0-.8.4-.8.8s.3.8.8.8zM6.5 17.3h-.2v-5h.2c.9 0 1.7-.7 1.7-1.7V7c0-.6-.4-1.2-1-1.3-1.2-.3-2.3-.2-3.4.3C2.1 6.8 1 8.6 1 10.5V19c0 1.9 1.1 3.7 2.8 4.5.6.3 1.3.4 2 .4.4 0 .9-.1 1.3-.2.6-.2 1-.7 1-1.3v-3.5c.1-.9-.7-1.6-1.6-1.6zm-1.7-6.5c-.2.2-.3.4-.3.6v6.8c0 .2.1.4.3.6.2.1.4.2.6.2h1v3.3c-.7.1-1.4.1-2-.2-1.1-.5-1.9-1.7-1.8-3v-8.6c0-1.3.7-2.4 1.8-3 .4-.2.9-.3 1.3-.3.2 0 .4 0 .6.1v3.3h-.9c-.2-.1-.4 0-.6.2zM18.1 20.4h.8c.5 0 .8-.4.8-.8 0-.5-.4-.8-.8-.8h-.8c-.5 0-.8.4-.8.8-.1.4.3.8.8.8zM14.7 20.4h.8c.5 0 .8-.4.8-.8 0-.5-.4-.8-.8-.8h-.8c-.5 0-.8.4-.8.8s.4.8.8.8zM18.1 17.8h.8c.5 0 .8-.4.8-.8s-.4-.8-.8-.8h-.8c-.5 0-.8.4-.8.8s.3.8.8.8zM11.4 20.4h.8c.5 0 .8-.4.8-.8 0-.5-.4-.8-.8-.8h-.8c-.5 0-.8.4-.8.8s.3.8.8.8zM18.8 15.2c.5 0 .8-.4.8-.8 0-.5-.4-.8-.8-.8H18c-.5 0-.8.4-.8.8 0 .5.4.8.8.8h.8zM14.7 15.2h.8c.5 0 .8-.4.8-.8 0-.5-.4-.8-.8-.8h-.8c-.5 0-.8.4-.8.8s.4.8.8.8zM14.7 17.8h.8c.5 0 .8-.4.8-.8s-.4-.8-.8-.8h-.8c-.5 0-.8.4-.8.8s.4.8.8.8z"/>
  </symbol>

  <use xlink:href="#fax" x="0" y="0" class="theme-slate"></use>
  <use xlink:href="#fax" x="24" y="0" class="theme-orange"></use>
  <use xlink:href="#fax" x="48" y="0" class="theme-plum"></use>
  <use xlink:href="#fax" x="72" y="0" class="theme-navy"></use>
  <use xlink:href="#fax" x="96" y="0" class="theme-metro"></use>
  <use xlink:href="#fax" x="120" y="0" class="theme-seafoam"></use>
  <use xlink:href="#fax" x="144" y="0" class="theme-wasabi"></use>
  <use xlink:href="#fax" x="168" y="0" class="theme-fern"></use>
  <use xlink:href="#fax" x="192" y="0" class="theme-steel"></use>
  <use xlink:href="#fax" x="216" y="0" class="theme-teal"></use>
</svg>
