<svg xmlns="#www.w3.org/2000/svg" xmlns:xlink="#www.w3.org/1999/xlink" width="240" height="24" viewBox="0 0 240 24" xml:space="preserve">
  <style type="text/css">
    .theme-slate {fill: #4A4A4A; }
    .theme-orange {fill: #E06535; }
    .theme-plum {fill: #5B4270; }
    .theme-navy {fill: #00415B; }
    .theme-metro {fill: #1893C1; }
    .theme-seafoam {fill: #017C77; }
    .theme-wasabi {fill: #7B9324; }
    .theme-fern {fill: #4A7C3B; }
    .theme-steel {fill: #66889B; }
    .theme-teal {fill: #078292; }
  </style>

  <symbol id="connect" width="24" height="24">
    <path d="M17 18.4c0-.3.3-.6.6-.6h3.1c.3 0 .6.3.6.6v3.1c0 .3-.3.6-.6.6h-3.1c-.3 0-.6-.3-.6-.6v-3.1zM3.3 14.1c-.3 0-.6-.3-.6-.6v-3.1c0-.3.3-.6.6-.6h3.1c.3 0 .6.3.6.6v3.1c0 .3-.3.6-.6.6H3.3zM17 2.5c0-.3.3-.6.6-.6h3.1c.3 0 .6.3.6.6v3.1c0 .3-.3.6-.6.6h-3.1c-.3 0-.6-.3-.6-.6V2.5zm-8.1 8.1l6.3-4c.4.9 1.3 1.5 2.3 1.5h3.1c1.4 0 2.5-1.1 2.5-2.5V2.5C23.1 1.1 22 0 20.6 0h-3.1C16.1 0 15 1.1 15 2.5v1.6L8 8.5c-.4-.4-1-.6-1.6-.6H3.3C1.9 7.9.8 9 .8 10.4v3.1c0 1.4 1.1 2.5 2.5 2.5h3.1c.6 0 1.1-.2 1.5-.5l7.2 4.5v1.4c0 1.4 1.1 2.5 2.5 2.5h3.1c1.4 0 2.5-1.1 2.5-2.5v-3.1c0-1.4-1.1-2.5-2.5-2.5h-3.1c-1.1 0-2 .7-2.4 1.7l-6.3-3.9v-3z" />
  </symbol>

  <use xlink:href="#connect" x="0" y="0" class="theme-slate"></use>
  <use xlink:href="#connect" x="24" y="0" class="theme-orange"></use>
  <use xlink:href="#connect" x="48" y="0" class="theme-plum"></use>
  <use xlink:href="#connect" x="72" y="0" class="theme-navy"></use>
  <use xlink:href="#connect" x="96" y="0" class="theme-metro"></use>
  <use xlink:href="#connect" x="120" y="0" class="theme-seafoam"></use>
  <use xlink:href="#connect" x="144" y="0" class="theme-wasabi"></use>
  <use xlink:href="#connect" x="168" y="0" class="theme-fern"></use>
  <use xlink:href="#connect" x="192" y="0" class="theme-steel"></use>
  <use xlink:href="#connect" x="216" y="0" class="theme-teal"></use>
</svg>
