<svg xmlns="#www.w3.org/2000/svg" xmlns:xlink="#www.w3.org/1999/xlink" width="240" height="24" viewBox="0 0 240 24" xml:space="preserve">
  <style type="text/css">
    .theme-slate {fill: #4A4A4A; }
    .theme-orange {fill: #E06535; }
    .theme-plum {fill: #5B4270; }
    .theme-navy {fill: #00415B; }
    .theme-metro {fill: #1893C1; }
    .theme-seafoam {fill: #017C77; }
    .theme-wasabi {fill: #7B9324; }
    .theme-fern {fill: #4A7C3B; }
    .theme-steel {fill: #66889B; }
    .theme-teal {fill: #078292; }
  </style>

  <symbol id="location" width="24" height="24">
    <path d="M12.3 0c-5 0-9.1 4-9.1 9 0 3.1 2.5 7.5 7.6 13.6.4.5 1 .7 1.5.7s.9-.2 1.3-.5l.2-.2c5.1-6.1 7.6-10.5 7.6-13.6 0-5-4.1-9-9.1-9zm0 21.3C6.4 14.3 5.2 10.8 5.2 9c0-3.9 3.2-7 7.1-7s7.1 3.1 7.1 7c0 1.8-1.2 5.3-7.1 12.3z"/>
    <path d="M12.3 4C9.5 4 7.2 6.2 7.2 9s2.3 5 5.1 5 5.1-2.2 5.1-5-2.3-5-5.1-5zm0 8c-1.7 0-3.1-1.3-3.1-3s1.4-3 3.1-3 3.1 1.3 3.1 3-1.4 3-3.1 3z"/>
  </symbol>

  <use xlink:href="#location" x="0" y="0" class="theme-slate"></use>
  <use xlink:href="#location" x="24" y="0" class="theme-orange"></use>
  <use xlink:href="#location" x="48" y="0" class="theme-plum"></use>
  <use xlink:href="#location" x="72" y="0" class="theme-navy"></use>
  <use xlink:href="#location" x="96" y="0" class="theme-metro"></use>
  <use xlink:href="#location" x="120" y="0" class="theme-seafoam"></use>
  <use xlink:href="#location" x="144" y="0" class="theme-wasabi"></use>
  <use xlink:href="#location" x="168" y="0" class="theme-fern"></use>
  <use xlink:href="#location" x="192" y="0" class="theme-steel"></use>
  <use xlink:href="#location" x="216" y="0" class="theme-teal"></use>
</svg>
