<svg xmlns="#www.w3.org/2000/svg" xmlns:xlink="#www.w3.org/1999/xlink" width="110" height="14" viewBox="0 0 110 14" xml:space="preserve">
  <style type="text/css">
    .theme-slate {color: #4A4A4A; }
    .theme-orange {color: #E06535; }
    .theme-plum {color: #5B4270; }
    .theme-navy {color: #00415B; }
    .theme-metro {color: #1893C1; }
    .theme-seafoam {color: #017C77; }
    .theme-wasabi {color: #7B9324; }
    .theme-fern {color: #4A7C3B; }
    .theme-steel {color: #66889B; }
    .theme-teal {color: #078292; }
  </style>

  <symbol id="lock" width="11" height="14">
    <path fill="currentColor" d="M10 6.8V5.1v-.5C10 2 8 0 5.5 0 4.3 0 3.1.5 2.3 1.3c-.9.9-1.3 2-1.3 3.2v2.3C.4 7.3 0 8.1 0 9v2c0 1.7 1.3 3 3 3h5c1.7 0 3-1.3 3-3V9c0-.9-.4-1.7-1-2.2zM6.9 10c-.2.4-.5.8-.9.9V12H5v-1.1c-.4-.2-.8-.5-.9-.9-.1-.2-.1-.3-.1-.5C4 8.7 4.7 8 5.5 8S7 8.7 7 9.5c0 .2 0 .3-.1.5zM8 6H3V5v-.5c0-.6.2-1.3.7-1.7.5-.5 1.1-.8 1.8-.8C6.9 2 8 3.1 8 4.5V6z"/>
  </symbol>

  <use xlink:href="#lock" x="0" y="0" class="theme-slate"></use>
  <use xlink:href="#lock" x="11" y="0" class="theme-orange"></use>
  <use xlink:href="#lock" x="22" y="0" class="theme-plum"></use>
  <use xlink:href="#lock" x="33" y="0" class="theme-navy"></use>
  <use xlink:href="#lock" x="44" y="0" class="theme-metro"></use>
  <use xlink:href="#lock" x="55" y="0" class="theme-seafoam"></use>
  <use xlink:href="#lock" x="66" y="0" class="theme-wasabi"></use>
  <use xlink:href="#lock" x="77" y="0" class="theme-fern"></use>
  <use xlink:href="#lock" x="88" y="0" class="theme-steel"></use>
  <use xlink:href="#lock" x="99" y="0" class="theme-teal"></use>
</svg>
