<svg xmlns="#www.w3.org/2000/svg" xmlns:xlink="#www.w3.org/1999/xlink" width="240" height="24" viewBox="0 0 240 24" xml:space="preserve">
  <style type="text/css">
    .theme-slate {fill: #4A4A4A; }
    .theme-orange {fill: #E06535; }
    .theme-plum {fill: #5B4270; }
    .theme-navy {fill: #00415B; }
    .theme-metro {fill: #1893C1; }
    .theme-seafoam {fill: #017C77; }
    .theme-wasabi {fill: #7B9324; }
    .theme-fern {fill: #4A7C3B; }
    .theme-steel {fill: #66889B; }
    .theme-teal {fill: #078292; }
  </style>

  <symbol id="link" width="24" height="24">
    <path d="M12 10c-.4.3-.4.9-.1 1.3 1 1.2 1 2.9-.1 4l-4 4c-.6.6-1.3.9-2.1.9s-1.5-.3-2.1-.9c-1.2-1.2-1.2-3 0-4.2l4-4c.4-.4.4-1 0-1.4-.4-.4-1-.4-1.4 0l-4 4c-.9.9-1.4 2.1-1.4 3.5s.5 2.5 1.4 3.5c1 1 2.2 1.4 3.5 1.4 1.3 0 2.5-.5 3.5-1.4l4-4c1.8-1.8 1.9-4.7.2-6.7-.3-.3-.9-.4-1.4 0z"/>
    <path d="M20.7 2.3c-.9-.9-2.1-1.4-3.5-1.4s-2.5.5-3.5 1.4l-4 4C8 8.1 7.9 11 9.6 12.9c.2.2.4.3.7.3.3 0 .5-.1.7-.2.2-.2.3-.4.3-.7 0-.3-.1-.5-.2-.7-1-1.2-1-2.9.1-4l4-4c.6-.6 1.3-.9 2.1-.9s1.5.3 2.1.9c1.2 1.2 1.2 3 0 4.2l-4 4c-.2.2-.3.4-.3.7s.1.5.3.7c.2.2.4.3.7.3.2 0 .5-.1.7-.3l4-4c.9-.9 1.4-2.1 1.4-3.5s-.6-2.5-1.5-3.4z"/>
  </symbol>

  <use xlink:href="#link" x="0" y="0" class="theme-slate"></use>
  <use xlink:href="#link" x="24" y="0" class="theme-orange"></use>
  <use xlink:href="#link" x="48" y="0" class="theme-plum"></use>
  <use xlink:href="#link" x="72" y="0" class="theme-navy"></use>
  <use xlink:href="#link" x="96" y="0" class="theme-metro"></use>
  <use xlink:href="#link" x="120" y="0" class="theme-seafoam"></use>
  <use xlink:href="#link" x="144" y="0" class="theme-wasabi"></use>
  <use xlink:href="#link" x="168" y="0" class="theme-fern"></use>
  <use xlink:href="#link" x="192" y="0" class="theme-steel"></use>
  <use xlink:href="#link" x="216" y="0" class="theme-teal"></use>
</svg>
