<svg xmlns="#www.w3.org/2000/svg" xmlns:xlink="#www.w3.org/1999/xlink" width="240" height="24" viewBox="0 0 240 24" xml:space="preserve">
  <style type="text/css">
    .theme-slate {fill: #4A4A4A; }
    .theme-orange {fill: #E06535; }
    .theme-plum {fill: #5B4270; }
    .theme-navy {fill: #00415B; }
    .theme-metro {fill: #1893C1; }
    .theme-seafoam {fill: #017C77; }
    .theme-wasabi {fill: #7B9324; }
    .theme-fern {fill: #4A7C3B; }
    .theme-steel {fill: #66889B; }
    .theme-teal {fill: #078292; }
  </style>

  <symbol id="person" width="24" height="24">
    <path d="M24 21.4c-.9-4.9-3.8-8-8.7-8.9 2-1.1 3.4-3.3 3.4-5.8C18.7 3 15.7 0 12 0S5.4 3 5.4 6.7c0 2.5 1.4 4.7 3.4 5.8-5 .8-8 4-8.7 9v.3C0 23 1 24 2.2 24h20c.6-.1 1.1-.4 1.4-.9.4-.5.5-1.1.4-1.7zM12 2.2c2.4 0 4.4 2 4.4 4.4S14.4 11 12 11c-2.4 0-4.4-2-4.4-4.4s2-4.4 4.4-4.4zM2.2 21.8c.8-4.9 3.8-7.3 9.7-7.3 5.9 0 9 2.5 9.9 7.3H2.2z"/>
  </symbol>

  <use xlink:href="#person" x="0" y="0" class="theme-slate"></use>
  <use xlink:href="#person" x="24" y="0" class="theme-orange"></use>
  <use xlink:href="#person" x="48" y="0" class="theme-plum"></use>
  <use xlink:href="#person" x="72" y="0" class="theme-navy"></use>
  <use xlink:href="#person" x="96" y="0" class="theme-metro"></use>
  <use xlink:href="#person" x="120" y="0" class="theme-seafoam"></use>
  <use xlink:href="#person" x="144" y="0" class="theme-wasabi"></use>
  <use xlink:href="#person" x="168" y="0" class="theme-fern"></use>
  <use xlink:href="#person" x="192" y="0" class="theme-steel"></use>
  <use xlink:href="#person" x="216" y="0" class="theme-teal"></use>
</svg>
