<svg xmlns="#www.w3.org/2000/svg" xmlns:xlink="#www.w3.org/1999/xlink" width="240" height="24" viewBox="0 0 240 24" xml:space="preserve">
  <style type="text/css">
    .theme-slate {fill: #4A4A4A; }
    .theme-orange {fill: #E06535; }
    .theme-plum {fill: #5B4270; }
    .theme-navy {fill: #00415B; }
    .theme-metro {fill: #1893C1; }
    .theme-seafoam {fill: #017C77; }
    .theme-wasabi {fill: #7B9324; }
    .theme-fern {fill: #4A7C3B; }
    .theme-steel {fill: #66889B; }
    .theme-teal {fill: #078292; }
  </style>

  <symbol id="clock" width="24" height="24">
    <path d="M20.5 3.5c-4.7-4.7-12.3-4.6-17 .1-4.7 4.6-4.7 12.2 0 16.9 2.3 2.3 5.3 3.6 8.6 3.6 3.2 0 6.2-1.2 8.5-3.5s3.5-5.2 3.5-8.5c-.1-3.3-1.3-6.3-3.6-8.6zm1.2 8.5c0 2.6-1 5-2.9 6.7-3.7 3.7-9.8 3.7-13.6 0-3.7-3.7-3.7-9.6 0-13.4C7 3.5 9.4 2.5 12 2.5s5 1 6.8 2.8c1.8 1.8 2.9 4.2 2.9 6.7z"/>
    <path d="M12.5 5.4h-2.3v8.4h7.3v-2.3h-5z"/>
  </symbol>

  <use xlink:href="#clock" x="0" y="0" class="theme-slate"></use>
  <use xlink:href="#clock" x="24" y="0" class="theme-orange"></use>
  <use xlink:href="#clock" x="48" y="0" class="theme-plum"></use>
  <use xlink:href="#clock" x="72" y="0" class="theme-navy"></use>
  <use xlink:href="#clock" x="96" y="0" class="theme-metro"></use>
  <use xlink:href="#clock" x="120" y="0" class="theme-seafoam"></use>
  <use xlink:href="#clock" x="144" y="0" class="theme-wasabi"></use>
  <use xlink:href="#clock" x="168" y="0" class="theme-fern"></use>
  <use xlink:href="#clock" x="192" y="0" class="theme-steel"></use>
  <use xlink:href="#clock" x="216" y="0" class="theme-teal"></use>
</svg>
