<svg width="32" height="27" viewBox="0 0 32 27" xmlns="#www.w3.org/2000/svg">
  <path d="M31.427 3.23c-1.157.54-2.4.903-3.703 1.066 1.33-.837 2.353-2.163 2.834-3.743-1.246.776-2.625 1.34-4.094 1.642C25.288.88 23.612.06 21.758.06c-3.56 0-6.448 3.028-6.448 6.764 0 .53.057 1.046.167 1.542-5.358-.283-10.11-2.976-13.29-7.07-.555 1-.872 2.163-.872 3.402 0 2.347 1.138 4.418 2.868 5.63-1.057-.034-2.05-.338-2.92-.845v.085c0 3.278 2.22 6.012 5.17 6.633-.54.157-1.11.24-1.698.24-.415 0-.82-.043-1.213-.122.82 2.688 3.202 4.644 6.023 4.698C7.34 22.83 4.56 23.91 1.538 23.91c-.52 0-1.034-.03-1.538-.093 2.853 1.92 6.242 3.04 9.884 3.04 11.86 0 18.344-10.31 18.344-19.25 0-.293-.006-.584-.018-.875 1.26-.954 2.353-2.145 3.217-3.5z" fill="#000000"/>
</svg>
