<svg xmlns="#www.w3.org/2000/svg" width="14" height="15" viewBox="0 0 14 15">
	<path fill="#3A5559" d="M14,2.9c-0.5,0.2-1.1,0.4-1.6,0.5c0.6-0.4,1-1,1.3-1.7c-0.6,0.3-1.2,0.6-1.8,0.7c-0.5-0.6-1.3-1-2.1-1
		c-1.6,0-2.9,1.3-2.9,3c0,0.2,0,0.5,0.1,0.7C4.5,5.1,2.4,3.9,1,2C0.7,2.5,0.6,3,0.6,3.6c0,1,0.5,2,1.3,2.5C1.4,6,1,5.9,0.6,5.7v0
		c0,1.5,1,2.7,2.3,3C2.6,8.7,2.4,8.8,2.1,8.8c-0.2,0-0.4,0-0.5-0.1c0.4,1.2,1.4,2.1,2.7,2.1c-1,0.8-2.2,1.3-3.6,1.3
		c-0.2,0-0.5,0-0.7,0c1.3,0.9,2.8,1.4,4.4,1.4c5.3,0,8.2-4.6,8.2-8.6c0-0.1,0-0.3,0-0.4C13.1,4,13.6,3.5,14,2.9L14,2.9z"/>
</svg>
