<svg xmlns="#www.w3.org/2000/svg" viewBox="0 0 16 17">
  <g>
    <g>
      <g>
        <g>
          <path fill="#fff" d="M4 0h8l4 4v11c0 1.1-.9 2-2 2H4c-1.1 0-2-.9-2-2V2c0-1.1.9-2 2-2z"/>
          <path fill="none" stroke="#8b8b8b" d="M15.5 4.2L11.8.5H4c-.8 0-1.5.7-1.5 1.5v13c0 .8.7 1.5 1.5 1.5h10c.8 0 1.5-.7 1.5-1.5V4.2z"/>
        </g>
        <path fill="none" stroke="#8b8b8b" d="M11.5.5v4h4"/>
      </g>
      <g transform="translate(3 7)">
        <path d="M5 6l.6-2.6c.2-.6.3-1.2.4-1.8.1.7.2 1.2.3 1.9L6.8 6h1.5L10 0H8.6L8 2.5c-.1.7-.2 1.4-.3 2-.1-.7-.2-1.3-.3-2L6.8 0H5.3l-.5 2.5c-.2.7-.3 1.4-.4 2.1-.1-.6-.3-1.4-.4-2.1L3.5 0H2l1.5 6H5z" fill="#07ccc9"/>
        <path fill="#00ccc9" d="M8 0h1v1H8z"/>
      </g>
    </g>
  </g>
  <path fill="#3a3a3a" d="M8.5 11.1v1.5c0 1.3-1 2.3-2.3 2.3H2.3C1 15 0 14 0 12.6v-1.5c0-.7.3-1.3.8-1.8V7.6c0-1.9 1.6-3.5 3.5-3.5s3.5 1.6 3.5 3.5v1.7c.4.5.7 1.1.7 1.8z"/>
  <path fill="#fff" d="M6.2 7.6v1.2H2.3V7.6c0-1.1.9-1.9 1.9-1.9 1.1 0 2 .8 2 1.9z"/>
  <path fill="#fff" d="M3.9 12.6c-.5-.2-.8-.5-.8-1.1 0-.6.5-1.2 1.2-1.2s1.2.5 1.2 1.2c0 .5-.3.9-.8 1.1v.9h-.8v-.9z"/>
</svg>
